<svg xmlns="http://www.w3.org/2000/svg" viewBox="0 0 320 120" fill="none">
  <rect width="320" height="120" rx="18" fill="#95df80"/>
  <path d="M25 52c0-9 7-16 16-16h104c14 0 28 6 37 16l14 15c8 8 19 13 31 13h18c27 0 49-22 49-49" stroke="#2f8f2f" stroke-width="6" stroke-linecap="round"/>
  <path d="M40 48c3-10 9-16 19-18M69 30c8-4 17-4 25 0M102 31c8 2 14 7 18 15" stroke="#2f8f2f" stroke-width="5" stroke-linecap="round"/>
  <circle cx="85" cy="48" r="3" fill="#2f8f2f"/>
  <circle cx="104" cy="48" r="3" fill="#2f8f2f"/>
  <path d="M92 58c4 3 8 3 12 0" stroke="#2f8f2f" stroke-width="4" stroke-linecap="round"/>
  <text x="34" y="102" fill="#2f8f2f" font-family="Segoe UI, sans-serif" font-size="44" font-weight="700">Томасина</text>
</svg>
